<svg width="24" height="24" viewBox="0 0 24 24" fill="none" xmlns="http://www.w3.org/2000/svg">
  <path d="M10.29 3.86L1.82 18C1.64466 18.3024 1.55611 18.6453 1.56287 18.9945C1.56962 19.3437 1.67141 19.6831 1.85872 19.9796C2.04603 20.2761 2.31061 20.5169 2.62348 20.6772C2.93635 20.8375 3.28648 20.9115 3.64 20.89H20.36C20.7135 20.9115 21.0637 20.8375 21.3765 20.6772C21.6894 20.5169 21.954 20.2761 22.1413 19.9796C22.3286 19.6831 22.4304 19.3437 22.4371 18.9945C22.4439 18.6453 22.3553 18.3024 22.18 18L13.71 3.86C13.5317 3.56611 13.2807 3.32312 12.9812 3.15448C12.6817 2.98585 12.3438 2.89725 12 2.89725C11.6562 2.89725 11.3183 2.98585 11.0188 3.15448C10.7193 3.32312 10.4683 3.56611 10.29 3.86V3.86Z" stroke="currentColor" stroke-width="2" stroke-linecap="round" stroke-linejoin="round"/>
  <path d="M12 9V13" stroke="currentColor" stroke-width="2" stroke-linecap="round" stroke-linejoin="round"/>
  <path d="M12 17H12.01" stroke="currentColor" stroke-width="2" stroke-linecap="round" stroke-linejoin="round"/>
</svg>